<svg id="visual" viewBox="0 0 900 200" width="900" height="200" xmlns="http://www.w3.org/2000/svg" xmlns:xlink="http://www.w3.org/1999/xlink" version="1.1"><path d="M0 167L37.5 166.5C75 166 150 165 225 165.8C300 166.7 375 169.3 450 157.3C525 145.3 600 118.7 675 108.8C750 99 825 106 862.5 109.5L900 113L900 201L862.5 201C825 201 750 201 675 201C600 201 525 201 450 201C375 201 300 201 225 201C150 201 75 201 37.5 201L0 201Z" fill="#6c63ff" stroke-linecap="round" stroke-linejoin="miter"></path></svg>