<svg id="visual" viewBox="0 0 900 100" width="900" height="100" xmlns="http://www.w3.org/2000/svg" xmlns:xlink="http://www.w3.org/1999/xlink" version="1.1"><rect x="0" y="0" width="900" height="100" fill="#fff"></rect><path d="M0 79L25 74.7C50 70.3 100 61.7 150 64.3C200 67 250 81 300 88.5C350 96 400 97 450 95.3C500 93.7 550 89.3 600 86.5C650 83.7 700 82.3 750 76.2C800 70 850 59 875 53.5L900 48L900 101L875 101C850 101 800 101 750 101C700 101 650 101 600 101C550 101 500 101 450 101C400 101 350 101 300 101C250 101 200 101 150 101C100 101 50 101 25 101L0 101Z" fill="#6c63ff" stroke-linecap="round" stroke-linejoin="miter"></path></svg>