<svg id="visual" viewBox="0 0 900 100" width="900" height="100" xmlns="http://www.w3.org/2000/svg" xmlns:xlink="http://www.w3.org/1999/xlink" version="1.1"><path d="M0 55L25 56.2C50 57.3 100 59.7 150 59.2C200 58.7 250 55.3 300 55.3C350 55.3 400 58.7 450 64C500 69.3 550 76.7 600 71.5C650 66.3 700 48.7 750 46.5C800 44.3 850 57.7 875 64.3L900 71L900 101L875 101C850 101 800 101 750 101C700 101 650 101 600 101C550 101 500 101 450 101C400 101 350 101 300 101C250 101 200 101 150 101C100 101 50 101 25 101L0 101Z" fill="#6c63ff" stroke-linecap="round" stroke-linejoin="miter"></path></svg>